<svg version="1.1" xmlns="http://www.w3.org/2000/svg" xmlns:xlink="http://www.w3.org/1999/xlink" width="700pt" height="700pt" viewBox="0,0,256,256"><defs><symbol viewBox="0.26553,-4.06245,3.39067,4.14058" id="symbol-1"><g id="u" fill="#000000" fill-rule="nonzero" stroke="none" stroke-width="1" stroke-linecap="butt" stroke-linejoin="miter" stroke-miterlimit="10" stroke-dasharray="" stroke-dashoffset="0" font-family="none" font-weight="none" font-size="none" text-anchor="none" style="mix-blend-mode: normal"><path d="M3.6562,-0.21875c-0.1875,0.09375 -0.38672,0.16797 -0.59375,0.21875c-0.19922,0.05078 -0.40625,0.07813 -0.625,0.07813c-0.66797,0 -1.1992,-0.17969 -1.5938,-0.54688c-0.38672,-0.375 -0.57812,-0.87891 -0.57812,-1.5156c0,-0.64453 0.19141,-1.1484 0.57812,-1.5156c0.39453,-0.375 0.92578,-0.5625 1.5938,-0.5625c0.21875,0 0.42578,0.02734 0.625,0.07813c0.20703,0.05469 0.40625,0.125 0.59375,0.21875v0.82812c-0.1875,-0.125 -0.375,-0.21875 -0.5625,-0.28125c-0.17969,-0.0625 -0.37109,-0.09375 -0.57812,-0.09375c-0.36719,0 -0.65625,0.12109 -0.875,0.35938c-0.21094,0.23047 -0.3125,0.55469 -0.3125,0.96875c0,0.40625 0.10156,0.73047 0.3125,0.96875c0.21875,0.23047 0.50781,0.34375 0.875,0.34375c0.20703,0 0.39844,-0.02344 0.57812,-0.07812c0.1875,-0.0625 0.375,-0.16016 0.5625,-0.29688z"></path></g></symbol><symbol viewBox="0.45313,-3.06254,2.23437,3.06252" id="symbol-2"><g id="c" fill="#000000" fill-rule="nonzero" stroke="none" stroke-width="1" stroke-linecap="butt" stroke-linejoin="miter" stroke-miterlimit="10" stroke-dasharray="" stroke-dashoffset="0" font-family="none" font-weight="none" font-size="none" text-anchor="none" style="mix-blend-mode: normal"><path d="M2.6875,-2.1719c-0.08594,-0.03906 -0.16797,-0.07031 -0.25,-0.09375c-0.08594,-0.01953 -0.16797,-0.03125 -0.25,-0.03125c-0.25,0 -0.44531,0.08594 -0.57812,0.25c-0.125,0.15625 -0.1875,0.38281 -0.1875,0.67188v1.375h-0.96875v-2.9844h0.96875v0.48438c0.11328,-0.19531 0.25,-0.33594 0.40625,-0.42188c0.16406,-0.09375 0.35938,-0.14062 0.57812,-0.14062h0.10938c0.03906,0 0.09375,0.00781 0.15625,0.01563z"></path></g></symbol><symbol viewBox="0.23436,-3.06251,3.20318,3.14063" id="symbol-3"><g id="b" fill="#000000" fill-rule="nonzero" stroke="none" stroke-width="1" stroke-linecap="butt" stroke-linejoin="miter" stroke-miterlimit="10" stroke-dasharray="" stroke-dashoffset="0" font-family="none" font-weight="none" font-size="none" text-anchor="none" style="mix-blend-mode: normal"><path d="M3.4375,-1.5v0.26562h-2.2344c0.03125,0.23047 0.11328,0.40234 0.25,0.51562c0.13281,0.10547 0.32812,0.15625 0.57812,0.15625c0.20703,0 0.41406,-0.02344 0.625,-0.07812c0.20703,-0.0625 0.42188,-0.15625 0.64062,-0.28125v0.73438c-0.21875,0.09375 -0.44531,0.16406 -0.67188,0.20312c-0.23047,0.03906 -0.45312,0.0625 -0.67188,0.0625c-0.54297,0 -0.96484,-0.13281 -1.2656,-0.40625c-0.30469,-0.28125 -0.45312,-0.67188 -0.45312,-1.1719c0,-0.47656 0.14453,-0.85938 0.4375,-1.1406c0.30078,-0.28125 0.70703,-0.42188 1.2188,-0.42188c0.46875,0 0.84375,0.14062 1.125,0.42188c0.28125,0.28126 0.42188,0.66406 0.42188,1.1406zM2.46875,-1.82812c0,-0.17578 -0.05859,-0.31641 -0.17188,-0.42188c-0.10547,-0.11328 -0.24219,-0.17188 -0.40625,-0.17188c-0.1875,0 -0.33984,0.05469 -0.45312,0.15625c-0.11719,0.10547 -0.1875,0.25 -0.21875,0.4375z"></path></g></symbol><symbol viewBox="0.23446,-3.06257,3.03126,3.14062" id="symbol-4"><g id="j" fill="#000000" fill-rule="nonzero" stroke="none" stroke-width="1" stroke-linecap="butt" stroke-linejoin="miter" stroke-miterlimit="10" stroke-dasharray="" stroke-dashoffset="0" font-family="none" font-weight="none" font-size="none" text-anchor="none" style="mix-blend-mode: normal"><path d="M1.7969,-1.3438c-0.19922,0 -0.35156,0.03906 -0.45312,0.10938c-0.09375,0.0625 -0.14062,0.16406 -0.14062,0.29688c0,0.11719 0.03516,0.21094 0.10938,0.28125c0.08203,0.0625 0.19531,0.09375 0.34375,0.09375c0.17578,0 0.32812,-0.0625 0.45312,-0.1875c0.125,-0.125 0.1875,-0.28516 0.1875,-0.48438v-0.10938zM3.2657,-1.70318v1.7031h-0.96875v-0.4375c-0.125,0.17969 -0.27344,0.30859 -0.4375,0.39062c-0.15625,0.08203 -0.35156,0.125 -0.57812,0.125c-0.3125,0 -0.57031,-0.08594 -0.76562,-0.26562c-0.1875,-0.1875 -0.28125,-0.42188 -0.28125,-0.70312c0,-0.35156 0.11719,-0.61328 0.35938,-0.78125c0.23828,-0.16406 0.61719,-0.25 1.1406,-0.25h0.5625v-0.0625c0,-0.15625 -0.0625,-0.26562 -0.1875,-0.32812c-0.11719,-0.07031 -0.29688,-0.10938 -0.54688,-0.10938c-0.21094,0 -0.40234,0.02344 -0.57812,0.0625c-0.17969,0.04297 -0.33984,0.10156 -0.48438,0.17188v-0.71875c0.19531,-0.05078 0.39844,-0.08594 0.60938,-0.10938c0.20703,-0.03125 0.41406,-0.04687 0.625,-0.04687c0.53906,0 0.92969,0.10938 1.1719,0.32812c0.23828,0.21094 0.35938,0.55469 0.35938,1.0312z"></path></g></symbol><symbol viewBox="0.07812,-3.84381,2.40625,3.84372" id="symbol-5"><g id="d" fill="#000000" fill-rule="nonzero" stroke="none" stroke-width="1" stroke-linecap="butt" stroke-linejoin="miter" stroke-miterlimit="10" stroke-dasharray="" stroke-dashoffset="0" font-family="none" font-weight="none" font-size="none" text-anchor="none" style="mix-blend-mode: normal"><path d="M1.5,-3.8438v0.85938h0.98438v0.67188h-0.98438v1.2812c0,0.13672 0.02344,0.23047 0.07813,0.28125c0.0625,0.04297 0.17578,0.0625 0.34375,0.0625h0.48438v0.6875h-0.8125c-0.38672,0 -0.65625,-0.07812 -0.8125,-0.23438c-0.15625,-0.15625 -0.23438,-0.42188 -0.23438,-0.79688v-1.2812h-0.46875v-0.67188h0.46875v-0.85938z"></path></g></symbol><symbol viewBox="0.24999,-4.1563,3.20313,4.23432" id="symbol-6"><g id="i" fill="#000000" fill-rule="nonzero" stroke="none" stroke-width="1" stroke-linecap="butt" stroke-linejoin="miter" stroke-miterlimit="10" stroke-dasharray="" stroke-dashoffset="0" font-family="none" font-weight="none" font-size="none" text-anchor="none" style="mix-blend-mode: normal"><path d="M2.5,-2.5469v-1.6094h0.95312v4.1562h-0.95312v-0.4375c-0.13672,0.17969 -0.28125,0.30859 -0.4375,0.39062c-0.15625,0.08203 -0.33984,0.125 -0.54688,0.125c-0.375,0 -0.68359,-0.14453 -0.92188,-0.4375c-0.23047,-0.28906 -0.34375,-0.67188 -0.34375,-1.1406c0,-0.45703 0.11328,-0.83203 0.34375,-1.125c0.23828,-0.28906 0.54688,-0.4375 0.92188,-0.4375c0.19531,0 0.375,0.04297 0.53125,0.125c0.16406,0.08594 0.31641,0.21484 0.45312,0.39062zM1.85938,-0.6094c0.20703,0 0.36328,-0.07031 0.46875,-0.21875c0.11328,-0.15625 0.17188,-0.37891 0.17188,-0.67188c0,-0.28125 -0.05859,-0.49219 -0.17188,-0.64062c-0.10547,-0.15625 -0.26172,-0.23438 -0.46875,-0.23438c-0.19922,0 -0.35547,0.07813 -0.46875,0.23438c-0.10547,0.14844 -0.15625,0.35938 -0.15625,0.64062c0,0.29297 0.05078,0.51562 0.15625,0.67188c0.11328,0.14844 0.26953,0.21875 0.46875,0.21875z"></path></g></symbol><symbol viewBox="0.45315,-4.15622,3.21876,4.23432" id="symbol-7"><g id="g" fill="#000000" fill-rule="nonzero" stroke="none" stroke-width="1" stroke-linecap="butt" stroke-linejoin="miter" stroke-miterlimit="10" stroke-dasharray="" stroke-dashoffset="0" font-family="none" font-weight="none" font-size="none" text-anchor="none" style="mix-blend-mode: normal"><path d="M2.0469,-0.60938c0.20703,0 0.36328,-0.07031 0.46875,-0.21875c0.11328,-0.15625 0.17188,-0.37891 0.17188,-0.67188c0,-0.28125 -0.05859,-0.49219 -0.17188,-0.64062c-0.10547,-0.15625 -0.26172,-0.23438 -0.46875,-0.23438c-0.19922,0 -0.35547,0.07813 -0.46875,0.23438c-0.10547,0.14844 -0.15625,0.35938 -0.15625,0.64062c0,0.29297 0.05078,0.51562 0.15625,0.67188c0.11328,0.14844 0.26953,0.21875 0.46875,0.21875zM1.4219,-2.54688c0.125,-0.17578 0.26562,-0.30469 0.42188,-0.39062c0.16406,-0.08203 0.35156,-0.125 0.5625,-0.125c0.36328,0 0.66406,0.14844 0.90625,0.4375c0.23828,0.29297 0.35938,0.66797 0.35938,1.125c0,0.46875 -0.12109,0.85156 -0.35938,1.1406c-0.24219,0.29297 -0.54297,0.4375 -0.90625,0.4375c-0.21094,0 -0.39844,-0.04297 -0.5625,-0.125c-0.15625,-0.08203 -0.29688,-0.21094 -0.42188,-0.39062v0.4375h-0.96875v-4.1562h0.96875z"></path></g></symbol><symbol viewBox="0.0625,-2.9844,3.40624,4.17184" id="symbol-8"><g id="f" fill="#000000" fill-rule="nonzero" stroke="none" stroke-width="1" stroke-linecap="butt" stroke-linejoin="miter" stroke-miterlimit="10" stroke-dasharray="" stroke-dashoffset="0" font-family="none" font-weight="none" font-size="none" text-anchor="none" style="mix-blend-mode: normal"><path d="M0.0625,-2.9844h0.95312l0.8125,2.0156l0.6875,-2.0156h0.95312l-1.2656,3.2656c-0.125,0.33203 -0.27344,0.56641 -0.4375,0.70312c-0.16797,0.13281 -0.39062,0.20312 -0.67188,0.20312h-0.54688v-0.64062h0.29688c0.16406,0 0.28516,-0.02734 0.35938,-0.07812c0.07031,-0.05469 0.12891,-0.14062 0.17188,-0.26562l0.03125,-0.09375z"></path></g></symbol><symbol viewBox="0.5,-3.9844,3.28125,3.98434" id="symbol-9"><g id="e" fill="#000000" fill-rule="nonzero" stroke="none" stroke-width="1" stroke-linecap="butt" stroke-linejoin="miter" stroke-miterlimit="10" stroke-dasharray="" stroke-dashoffset="0" font-family="none" font-weight="none" font-size="none" text-anchor="none" style="mix-blend-mode: normal"><path d="M0.5,-3.9844h1.7031c0.50781,0 0.89844,0.11719 1.1719,0.34375c0.26953,0.21875 0.40625,0.53906 0.40625,0.95312c0,0.41797 -0.13672,0.74219 -0.40625,0.96875c-0.27344,0.21875 -0.66406,0.32812 -1.1719,0.32812h-0.67188v1.3906h-1.0312zM1.5312,-3.2344v1.1094h0.5625c0.19531,0 0.34766,-0.04687 0.45312,-0.14062c0.11328,-0.10156 0.17188,-0.24219 0.17188,-0.42188c0,-0.17578 -0.05859,-0.3125 -0.17188,-0.40625c-0.10547,-0.09375 -0.25781,-0.14062 -0.45312,-0.14062z"></path></g></symbol><symbol viewBox="0.2344,-3.0625,3.2812,3.14063" id="symbol-10"><g id="a" fill="#000000" fill-rule="nonzero" stroke="none" stroke-width="1" stroke-linecap="butt" stroke-linejoin="miter" stroke-miterlimit="10" stroke-dasharray="" stroke-dashoffset="0" font-family="none" font-weight="none" font-size="none" text-anchor="none" style="mix-blend-mode: normal"><path d="M1.875,-2.375c-0.21094,0 -0.37109,0.07813 -0.48438,0.23438c-0.10547,0.14844 -0.15625,0.35938 -0.15625,0.64062c0,0.29297 0.05078,0.51562 0.15625,0.67188c0.11328,0.14844 0.27344,0.21875 0.48438,0.21875c0.20703,0 0.36719,-0.07031 0.48438,-0.21875c0.11328,-0.15625 0.17188,-0.37891 0.17188,-0.67188c0,-0.28125 -0.05859,-0.49219 -0.17188,-0.64062c-0.11719,-0.15625 -0.27734,-0.23438 -0.48438,-0.23438zM1.875,-3.0625c0.51953,0 0.92188,0.14062 1.2031,0.42188c0.28906,0.27344 0.4375,0.65234 0.4375,1.1406c0,0.5 -0.14844,0.89062 -0.4375,1.1719c-0.28125,0.27344 -0.68359,0.40625 -1.2031,0.40625c-0.51172,0 -0.91406,-0.13281 -1.2031,-0.40625c-0.29297,-0.28125 -0.4375,-0.67188 -0.4375,-1.1719c0,-0.48828 0.14453,-0.86719 0.4375,-1.1406c0.28906,-0.28125 0.69141,-0.42188 1.2031,-0.42188z"></path></g></symbol><symbol viewBox="0.3906,-4.06251,3.1406,4.14062" id="symbol-11"><g id="t" fill="#000000" fill-rule="nonzero" stroke="none" stroke-width="1" stroke-linecap="butt" stroke-linejoin="miter" stroke-miterlimit="10" stroke-dasharray="" stroke-dashoffset="0" font-family="none" font-weight="none" font-size="none" text-anchor="none" style="mix-blend-mode: normal"><path d="M3.2812,-3.8594v0.84375c-0.21875,-0.10156 -0.43359,-0.17578 -0.64062,-0.21875c-0.21094,-0.05078 -0.40625,-0.07812 -0.59375,-0.07812c-0.25,0 -0.43359,0.03906 -0.54688,0.10938c-0.11719,0.0625 -0.17188,0.16797 -0.17188,0.3125c0,0.10547 0.03516,0.1875 0.10938,0.25c0.08203,0.05469 0.22656,0.10156 0.4375,0.14062l0.4375,0.09375c0.44531,0.09375 0.75781,0.23047 0.9375,0.40625c0.1875,0.17969 0.28125,0.4375 0.28125,0.78125c0,0.4375 -0.13281,0.76562 -0.39062,0.98438c-0.26172,0.21094 -0.65625,0.3125 -1.1875,0.3125c-0.25,0 -0.50781,-0.02734 -0.76562,-0.07812c-0.25,-0.03906 -0.50781,-0.10938 -0.76562,-0.20312v-0.875c0.25781,0.13672 0.50391,0.24219 0.73438,0.3125c0.23828,0.0625 0.47266,0.09375 0.70312,0.09375c0.21875,0 0.38281,-0.03516 0.5,-0.10938c0.125,-0.07031 0.1875,-0.17578 0.1875,-0.3125c0,-0.125 -0.04297,-0.21875 -0.125,-0.28125c-0.08594,-0.07031 -0.24609,-0.13281 -0.48438,-0.1875l-0.39062,-0.09375c-0.40625,-0.08203 -0.70312,-0.21875 -0.89062,-0.40625c-0.17969,-0.1875 -0.26562,-0.44141 -0.26562,-0.76562c0,-0.39453 0.125,-0.69531 0.375,-0.90625c0.25781,-0.21875 0.62891,-0.32812 1.1094,-0.32812c0.22656,0 0.45703,0.02344 0.6875,0.0625c0.22656,0.03125 0.46875,0.07813 0.71875,0.14062z"></path></g></symbol><symbol viewBox="0.45314,-3.0625,4.81251,3.06258" id="symbol-12"><g id="h" fill="#000000" fill-rule="nonzero" stroke="none" stroke-width="1" stroke-linecap="butt" stroke-linejoin="miter" stroke-miterlimit="10" stroke-dasharray="" stroke-dashoffset="0" font-family="none" font-weight="none" font-size="none" text-anchor="none" style="mix-blend-mode: normal"><path d="M3.2344,-2.5c0.11328,-0.17578 0.25391,-0.3125 0.42188,-0.40625c0.16406,-0.10156 0.35156,-0.15625 0.5625,-0.15625c0.33203,0 0.58594,0.10938 0.76562,0.32812c0.1875,0.21094 0.28125,0.51172 0.28125,0.90625v1.8281h-0.96875v-1.5625c0.00781,-0.01953 0.01563,-0.03906 0.01563,-0.0625v-0.10938c0,-0.21875 -0.03125,-0.375 -0.09375,-0.46875c-0.0625,-0.09375 -0.16406,-0.14062 -0.29688,-0.14062c-0.1875,0 -0.33594,0.07813 -0.4375,0.23438c-0.09375,0.14844 -0.14062,0.35938 -0.14062,0.64062v1.4688h-0.96875v-1.5625c0,-0.33203 -0.03125,-0.54688 -0.09375,-0.64062c-0.05469,-0.09375 -0.15234,-0.14062 -0.29688,-0.14062c-0.17969,0 -0.32031,0.07813 -0.42188,0.23438c-0.09375,0.14844 -0.14062,0.35938 -0.14062,0.64062v1.4688h-0.96875v-2.9844h0.96875v0.4375c0.11328,-0.17578 0.24219,-0.30469 0.39062,-0.39062c0.15625,-0.08203 0.32812,-0.125 0.51562,-0.125c0.20703,0 0.39062,0.05469 0.54688,0.15625c0.15625,0.09375 0.27344,0.23047 0.35938,0.40625z"></path></g></symbol><symbol viewBox="0.45312,-4.1562,0.96875,4.1562" id="symbol-13"><g id="s" fill="#000000" fill-rule="nonzero" stroke="none" stroke-width="1" stroke-linecap="butt" stroke-linejoin="miter" stroke-miterlimit="10" stroke-dasharray="" stroke-dashoffset="0" font-family="none" font-weight="none" font-size="none" text-anchor="none" style="mix-blend-mode: normal"><path d="M0.45312,-4.1562h0.96875v4.1562h-0.96875z"></path></g></symbol><symbol viewBox="0.28123,-3.06247,2.71879,3.14062" id="symbol-14"><g id="r" fill="#000000" fill-rule="nonzero" stroke="none" stroke-width="1" stroke-linecap="butt" stroke-linejoin="miter" stroke-miterlimit="10" stroke-dasharray="" stroke-dashoffset="0" font-family="none" font-weight="none" font-size="none" text-anchor="none" style="mix-blend-mode: normal"><path d="M2.7969,-2.8906v0.71875c-0.21094,-0.08203 -0.40625,-0.14453 -0.59375,-0.1875c-0.1875,-0.03906 -0.37109,-0.0625 -0.54688,-0.0625c-0.17969,0 -0.3125,0.02344 -0.40625,0.0625c-0.08594,0.04297 -0.125,0.10938 -0.125,0.20312c0,0.08594 0.03125,0.14844 0.09375,0.1875c0.07031,0.04297 0.19531,0.07422 0.375,0.09375l0.15625,0.01563c0.48828,0.0625 0.81641,0.16797 0.98438,0.3125c0.17578,0.13672 0.26562,0.35938 0.26562,0.67188c0,0.3125 -0.12109,0.55469 -0.35938,0.71875c-0.23047,0.15625 -0.57812,0.23438 -1.0469,0.23438c-0.19922,0 -0.40625,-0.01562 -0.625,-0.04687c-0.21094,-0.03125 -0.42188,-0.07812 -0.64062,-0.14062v-0.71875c0.1875,0.08594 0.37891,0.15234 0.57812,0.20312c0.20703,0.04297 0.41406,0.0625 0.625,0.0625c0.1875,0 0.32812,-0.02344 0.42188,-0.07812c0.09375,-0.05078 0.14062,-0.125 0.14062,-0.21875c0,-0.09375 -0.03906,-0.16016 -0.10938,-0.20312c-0.0625,-0.03906 -0.1875,-0.07031 -0.375,-0.09375l-0.17188,-0.01562c-0.42969,-0.05078 -0.73047,-0.14844 -0.90625,-0.29688c-0.16797,-0.14453 -0.25,-0.36328 -0.25,-0.65625c0,-0.32031 0.10938,-0.55469 0.32812,-0.70312c0.21875,-0.15625 0.55078,-0.23438 1,-0.23438c0.17578,0 0.35938,0.01563 0.54688,0.04688c0.19531,0.02344 0.41016,0.0625 0.64062,0.125z"></path></g></symbol><symbol viewBox="0.10941,-4.1562,2.31249,4.15626" id="symbol-15"><g id="q" fill="#000000" fill-rule="nonzero" stroke="none" stroke-width="1" stroke-linecap="butt" stroke-linejoin="miter" stroke-miterlimit="10" stroke-dasharray="" stroke-dashoffset="0" font-family="none" font-weight="none" font-size="none" text-anchor="none" style="mix-blend-mode: normal"><path d="M2.4219,-4.1562v0.625h-0.51562c-0.13672,0 -0.23438,0.02734 -0.29688,0.07813c-0.05469,0.05469 -0.07812,0.13672 -0.07812,0.25v0.21875h0.82812v0.67188h-0.82812v2.3125h-0.95312v-2.3125h-0.46875v-0.67188h0.46875v-0.21875c0,-0.32031 0.08594,-0.5625 0.26562,-0.71875c0.1875,-0.15625 0.47266,-0.23438 0.85938,-0.23438z"></path></g></symbol><symbol viewBox="0.45317,-4.15612,3.01563,4.1562" id="symbol-16"><g id="p" fill="#000000" fill-rule="nonzero" stroke="none" stroke-width="1" stroke-linecap="butt" stroke-linejoin="miter" stroke-miterlimit="10" stroke-dasharray="" stroke-dashoffset="0" font-family="none" font-weight="none" font-size="none" text-anchor="none" style="mix-blend-mode: normal"><path d="M3.4688,-1.8281v1.8281h-0.96875v-1.3906c0,-0.25781 -0.00781,-0.4375 -0.01562,-0.53125c-0.01172,-0.10156 -0.03125,-0.17578 -0.0625,-0.21875c-0.03125,-0.0625 -0.08594,-0.10938 -0.15625,-0.14062c-0.0625,-0.03906 -0.13281,-0.0625 -0.20312,-0.0625c-0.21094,0 -0.37109,0.07813 -0.48438,0.23438c-0.10547,0.15625 -0.15625,0.37109 -0.15625,0.64062v1.4688h-0.96875v-4.1562h0.96875v1.6094c0.13281,-0.17578 0.28516,-0.30469 0.45312,-0.39062c0.16406,-0.08203 0.34375,-0.125 0.53125,-0.125c0.34375,0 0.60156,0.10938 0.78125,0.32812c0.1875,0.21094 0.28125,0.51172 0.28125,0.90625z"></path></g></symbol><symbol viewBox="0.5,-3.9844,3.57808,3.9844" id="symbol-17"><g id="o" fill="#000000" fill-rule="nonzero" stroke="none" stroke-width="1" stroke-linecap="butt" stroke-linejoin="miter" stroke-miterlimit="10" stroke-dasharray="" stroke-dashoffset="0" font-family="none" font-weight="none" font-size="none" text-anchor="none" style="mix-blend-mode: normal"><path d="M0.5,-3.9844h1.1562l1.4375,2.7344v-2.7344h0.98438v3.9844h-1.1562l-1.4375,-2.7344v2.7344h-0.98438z"></path></g></symbol><symbol viewBox="0.42188,-2.98444,3.01563,3.06252" id="symbol-18"><g id="n" fill="#000000" fill-rule="nonzero" stroke="none" stroke-width="1" stroke-linecap="butt" stroke-linejoin="miter" stroke-miterlimit="10" stroke-dasharray="" stroke-dashoffset="0" font-family="none" font-weight="none" font-size="none" text-anchor="none" style="mix-blend-mode: normal"><path d="M0.42188,-1.1719v-1.8125h0.96875v0.29688v0.60938v0.48438c0,0.24219 0.00391,0.41797 0.01563,0.53125c0.00781,0.10547 0.03125,0.17969 0.0625,0.21875c0.03906,0.0625 0.09375,0.11719 0.15625,0.15625c0.0625,0.03125 0.13281,0.04688 0.21875,0.04688c0.19531,0 0.35156,-0.07812 0.46875,-0.23438c0.11328,-0.15625 0.17188,-0.36719 0.17188,-0.64062v-1.4688h0.95312v2.9844h-0.95312v-0.4375c-0.14844,0.17969 -0.30469,0.30859 -0.46875,0.39062c-0.15625,0.08203 -0.33594,0.125 -0.53125,0.125c-0.34375,0 -0.60938,-0.10156 -0.79688,-0.3125c-0.17969,-0.21875 -0.26562,-0.53125 -0.26562,-0.9375z"></path></g></symbol><symbol viewBox="0.45317,-3.06244,3.01563,3.06252" id="symbol-19"><g id="m" fill="#000000" fill-rule="nonzero" stroke="none" stroke-width="1" stroke-linecap="butt" stroke-linejoin="miter" stroke-miterlimit="10" stroke-dasharray="" stroke-dashoffset="0" font-family="none" font-weight="none" font-size="none" text-anchor="none" style="mix-blend-mode: normal"><path d="M3.4688,-1.8281v1.8281h-0.96875v-1.3906c0,-0.25781 -0.00781,-0.4375 -0.01562,-0.53125c-0.01172,-0.10156 -0.03125,-0.17578 -0.0625,-0.21875c-0.03125,-0.0625 -0.08594,-0.10938 -0.15625,-0.14062c-0.0625,-0.03906 -0.13281,-0.0625 -0.20312,-0.0625c-0.21094,0 -0.37109,0.07813 -0.48438,0.23438c-0.10547,0.15625 -0.15625,0.37109 -0.15625,0.64062v1.4688h-0.96875v-2.9844h0.96875v0.4375c0.13281,-0.17578 0.28516,-0.30469 0.45312,-0.39062c0.16406,-0.08203 0.34375,-0.125 0.53125,-0.125c0.34375,0 0.60156,0.10938 0.78125,0.32812c0.1875,0.21094 0.28125,0.51172 0.28125,0.90625z"></path></g></symbol><symbol viewBox="-0.18751,-4.1563,1.60938,5.34377" id="symbol-20"><g id="l" fill="#000000" fill-rule="nonzero" stroke="none" stroke-width="1" stroke-linecap="butt" stroke-linejoin="miter" stroke-miterlimit="10" stroke-dasharray="" stroke-dashoffset="0" font-family="none" font-weight="none" font-size="none" text-anchor="none" style="mix-blend-mode: normal"><path d="M0.45312,-2.9844h0.96875v2.9375c0,0.39453 -0.10156,0.69531 -0.29688,0.90625c-0.1875,0.21875 -0.46484,0.32812 -0.82812,0.32812h-0.48438v-0.64062h0.17188c0.17578,0 0.29688,-0.04297 0.35938,-0.125c0.07031,-0.07422 0.10938,-0.23047 0.10938,-0.46875zM0.45312,-4.1563h0.96875v0.78125h-0.96875z"></path></g></symbol><symbol viewBox="0.23442,-3.06247,2.64059,3.14063" id="symbol-21"><g id="k" fill="#000000" fill-rule="nonzero" stroke="none" stroke-width="1" stroke-linecap="butt" stroke-linejoin="miter" stroke-miterlimit="10" stroke-dasharray="" stroke-dashoffset="0" font-family="none" font-weight="none" font-size="none" text-anchor="none" style="mix-blend-mode: normal"><path d="M2.875,-2.8906v0.76562c-0.125,-0.08203 -0.25781,-0.14453 -0.39062,-0.1875c-0.13672,-0.03906 -0.27344,-0.0625 -0.40625,-0.0625c-0.27344,0 -0.48047,0.07813 -0.625,0.23438c-0.14844,0.15625 -0.21875,0.37109 -0.21875,0.64062c0,0.28125 0.07031,0.5 0.21875,0.65625c0.14453,0.15625 0.35156,0.23438 0.625,0.23438c0.14453,0 0.28516,-0.01953 0.42188,-0.0625c0.13281,-0.03906 0.25781,-0.10938 0.375,-0.20312v0.78125c-0.14844,0.0625 -0.29688,0.10156 -0.45312,0.125c-0.15625,0.03125 -0.3125,0.04688 -0.46875,0.04688c-0.54297,0 -0.96484,-0.13281 -1.2656,-0.40625c-0.30469,-0.28125 -0.45312,-0.67188 -0.45312,-1.1719c0,-0.48828 0.14844,-0.86719 0.45312,-1.1406c0.30078,-0.28125 0.72266,-0.42188 1.2656,-0.42188c0.15625,0 0.3125,0.01563 0.46875,0.04688c0.15625,0.02344 0.30469,0.0625 0.45312,0.125z"></path></g></symbol></defs><g fill="#ffffff" fill-rule="nonzero" stroke="none" stroke-width="1" stroke-linecap="butt" stroke-linejoin="miter" stroke-miterlimit="10" stroke-dasharray="" stroke-dashoffset="0" font-family="none" font-weight="none" font-size="none" text-anchor="none" style="mix-blend-mode: normal"><g transform="translate(0.37491,20.98377) scale(0.36571,0.36571)"><g><path d="M241.17,280c0,61.25 49.875,111.12 111.12,111.12v-222.25c-61.25,0 -111.12,49.875 -111.12,111.12z"></path><path d="M624.53,272.12l-76.344,-76.344c-2.0781,-2.0781 -3.2812,-4.9219 -3.2812,-7.875v-91.766c0,-6.125 -5.0312,-11.156 -11.156,-11.156h-91.766c-2.9531,0 -5.7969,-1.2031 -7.875,-3.2812l-76.234,-76.234c-4.375,-4.375 -11.375,-4.375 -15.75,0l-76.344,76.344c-2.0781,2.0781 -4.9219,3.2812 -7.875,3.2812h-91.766c-6.125,0 -11.156,5.0312 -11.156,11.156v91.766c0,2.9531 -1.2031,5.7969 -3.2812,7.875l-76.234,76.234c-4.375,4.375 -4.375,11.375 0,15.75l76.344,76.344c2.0781,2.0781 3.2812,4.9219 3.2812,7.875v91.766c0,6.125 5.0312,11.156 11.156,11.156h91.766c2.9531,0 5.7969,1.2031 7.875,3.2812l76.344,76.344c4.375,4.375 11.375,4.375 15.75,0l76.344,-76.344c2.0781,-2.0781 4.9219,-3.2812 7.875,-3.2812h91.766c6.125,0 11.156,-5.0312 11.156,-11.156v-91.766c0,-2.9531 1.2031,-5.7969 3.2812,-7.875l76.344,-76.344c4.1562,-4.375 4.1562,-11.375 -0.21875,-15.75zM352.3,446.68c-91.875,0 -166.69,-74.812 -166.69,-166.69c0,-91.878 74.812,-166.69 166.69,-166.69c91.878,0 166.69,74.812 166.69,166.69c0,91.878 -74.812,166.69 -166.69,166.69z"></path></g></g></g></svg>