<svg version="1.1" xmlns="http://www.w3.org/2000/svg" xmlns:xlink="http://www.w3.org/1999/xlink" width="700pt" height="700pt" viewBox="0,0,256,256"><g fill="#242c3a" fill-rule="nonzero" stroke="none" stroke-width="1" stroke-linecap="butt" stroke-linejoin="miter" stroke-miterlimit="10" stroke-dasharray="" stroke-dashoffset="0" font-family="none" font-weight="none" font-size="none" text-anchor="none" style="mix-blend-mode: normal"><g transform="translate(0.0015,0.0012)"><g><g transform="translate(0.2631,25.86198) scale(0.36571,0.36571)"><path d="M450.6,347.61c29.238,-37.629 43.031,-84.992 38.574,-132.44c-4.457,-47.448 -26.828,-91.406 -62.562,-122.93c-35.734,-31.527 -82.141,-48.25 -129.77,-46.762c-47.629,1.4844 -92.902,21.07 -126.6,54.77c-33.699,33.695 -53.285,78.969 -54.77,126.6c-1.4883,47.629 15.234,94.035 46.762,129.77c31.527,35.734 75.492,58.105 122.94,62.562c47.445,4.457 94.805,-9.3359 132.43,-38.574l125.9,125.89c5.9102,5.8047 14.457,8.0391 22.453,5.8711c7.9961,-2.168 14.242,-8.4141 16.41,-16.41c2.168,-7.9961 -0.06641,-16.543 -5.8711,-22.453zM163.33,233.33c0,-37.129 14.75,-72.738 41.008,-98.992c26.254,-26.258 61.863,-41.008 98.992,-41.008c37.133,0 72.742,14.75 98.996,41.008c26.254,26.254 41.004,61.863 41.004,98.992c0,37.133 -14.75,72.742 -41.004,98.996c-26.254,26.254 -61.863,41.004 -98.996,41.004c-37.117,-0.03906 -72.703,-14.801 -98.949,-41.047c-26.246,-26.246 -41.008,-61.832 -41.051,-98.953z"></path></g></g></g></g></svg>