<svg version="1.1" xmlns="http://www.w3.org/2000/svg" xmlns:xlink="http://www.w3.org/1999/xlink" width="700pt" height="700pt" viewBox="0,0,256,256"><defs><symbol viewBox="1.1562,-17.31248,14.4688,17.6406" id="symbol-1"><g id="u" fill="#000000" fill-rule="nonzero" stroke="none" stroke-width="1" stroke-linecap="butt" stroke-linejoin="miter" stroke-miterlimit="10" stroke-dasharray="" stroke-dashoffset="0" font-family="none" font-weight="none" font-size="none" text-anchor="none" style="mix-blend-mode: normal"><path d="M15.625,-0.9375c-0.80469,0.41797 -1.6406,0.73047 -2.5156,0.9375c-0.875,0.21875 -1.7891,0.32812 -2.7344,0.32812c-2.8359,0 -5.0781,-0.78906 -6.7344,-2.375c-1.6562,-1.582 -2.4844,-3.7266 -2.4844,-6.4375c0,-2.7188 0.82812,-4.8672 2.4844,-6.4531c1.6562,-1.582 3.8984,-2.375 6.7344,-2.375c0.94531,0 1.8594,0.10938 2.7344,0.32812c0.875,0.21094 1.7109,0.52344 2.5156,0.9375v3.5156c-0.8125,-0.55078 -1.6172,-0.95703 -2.4062,-1.2188c-0.78125,-0.25781 -1.6094,-0.39062 -2.4844,-0.39062c-1.5625,0 -2.793,0.50781 -3.6875,1.5156c-0.89844,1 -1.3438,2.3828 -1.3438,4.1406c0,1.75 0.44531,3.1328 1.3438,4.1406c0.89453,1 2.125,1.5 3.6875,1.5c0.875,0 1.7031,-0.12891 2.4844,-0.39062c0.78906,-0.25781 1.5938,-0.66406 2.4062,-1.2188z"></path></g></symbol><symbol viewBox="1.95365,-13.0624,9.48435,13.06242" id="symbol-2"><g id="c" fill="#000000" fill-rule="nonzero" stroke="none" stroke-width="1" stroke-linecap="butt" stroke-linejoin="miter" stroke-miterlimit="10" stroke-dasharray="" stroke-dashoffset="0" font-family="none" font-weight="none" font-size="none" text-anchor="none" style="mix-blend-mode: normal"><path d="M11.438,-9.2812c-0.35547,-0.16406 -0.71094,-0.28516 -1.0625,-0.35938c-0.35547,-0.08203 -0.71094,-0.125 -1.0625,-0.125c-1.0547,0 -1.8672,0.33984 -2.4375,1.0156c-0.5625,0.66797 -0.84375,1.625 -0.84375,2.875v5.875h-4.0781v-12.75h4.0781v2.0938c0.53125,-0.84375 1.1328,-1.4531 1.8125,-1.8281c0.67578,-0.38281 1.4883,-0.57812 2.4375,-0.57812c0.13281,0 0.28125,0.00781 0.4375,0.01563c0.16406,0.01172 0.39844,0.03906 0.70312,0.07813z"></path></g></symbol><symbol viewBox="1.0005,-13.06258,13.6875,13.3906" id="symbol-3"><g id="a" fill="#000000" fill-rule="nonzero" stroke="none" stroke-width="1" stroke-linecap="butt" stroke-linejoin="miter" stroke-miterlimit="10" stroke-dasharray="" stroke-dashoffset="0" font-family="none" font-weight="none" font-size="none" text-anchor="none" style="mix-blend-mode: normal"><path d="M14.688,-6.4062v1.1562h-9.5312c0.10156,0.96094 0.44531,1.6797 1.0312,2.1562c0.59375,0.48047 1.4258,0.71875 2.5,0.71875c0.85156,0 1.7266,-0.125 2.625,-0.375c0.90625,-0.25781 1.832,-0.64844 2.7812,-1.1719v3.1406c-0.96875,0.36719 -1.9375,0.64062 -2.9062,0.82812c-0.96094,0.1875 -1.9219,0.28125 -2.8906,0.28125c-2.3047,0 -4.0938,-0.58203 -5.375,-1.75c-1.2812,-1.1758 -1.9219,-2.8281 -1.9219,-4.9531c0,-2.0703 0.625,-3.7031 1.875,-4.8906c1.2578,-1.1953 2.9922,-1.7969 5.2031,-1.7969c2,0 3.5977,0.60547 4.7969,1.8125c1.207,1.2109 1.8125,2.8242 1.8125,4.8438zM10.5005,-7.7656c0,-0.78125 -0.23047,-1.4062 -0.6875,-1.875c-0.44922,-0.47656 -1.0391,-0.71875 -1.7656,-0.71875c-0.78125,0 -1.4219,0.22656 -1.9219,0.67188c-0.49219,0.44922 -0.79688,1.0898 -0.92188,1.9219z"></path></g></symbol><symbol viewBox="0.9999,-13.06263,12.9064,13.39068" id="symbol-4"><g id="f" fill="#000000" fill-rule="nonzero" stroke="none" stroke-width="1" stroke-linecap="butt" stroke-linejoin="miter" stroke-miterlimit="10" stroke-dasharray="" stroke-dashoffset="0" font-family="none" font-weight="none" font-size="none" text-anchor="none" style="mix-blend-mode: normal"><path d="M7.6719,-5.7344c-0.84375,0 -1.4844,0.14844 -1.9219,0.4375c-0.42969,0.28125 -0.64062,0.70312 -0.64062,1.2656c0,0.52344 0.17188,0.92969 0.51562,1.2188c0.35156,0.29297 0.83594,0.4375 1.4531,0.4375c0.75781,0 1.3984,-0.27344 1.9219,-0.82812c0.53125,-0.55078 0.79688,-1.2422 0.79688,-2.0781v-0.45312zM13.9063,-7.2813v7.2812h-4.1094v-1.8906c-0.55469,0.77344 -1.1719,1.3359 -1.8594,1.6875c-0.67969,0.35156 -1.5078,0.53125 -2.4844,0.53125c-1.3242,0 -2.3984,-0.38281 -3.2188,-1.1562c-0.82422,-0.76953 -1.2344,-1.7695 -1.2344,-3c0,-1.5 0.51562,-2.5977 1.5469,-3.2969c1.0312,-0.69531 2.6445,-1.0469 4.8438,-1.0469h2.4062v-0.3125c0,-0.64453 -0.25781,-1.1172 -0.76562,-1.4219c-0.51172,-0.30078 -1.3047,-0.45312 -2.375,-0.45312c-0.875,0 -1.6875,0.08984 -2.4375,0.26562c-0.75,0.17969 -1.4492,0.4375 -2.0938,0.78125v-3.1094c0.86328,-0.20703 1.7383,-0.36328 2.625,-0.46875c0.88281,-0.11328 1.7656,-0.17188 2.6406,-0.17188c2.3008,0 3.9609,0.45312 4.9844,1.3594c1.0195,0.90625 1.5312,2.3828 1.5312,4.4219z"></path></g></symbol><symbol viewBox="0.31248,-16.375,10.29682,16.3749" id="symbol-5"><g id="b" fill="#000000" fill-rule="nonzero" stroke="none" stroke-width="1" stroke-linecap="butt" stroke-linejoin="miter" stroke-miterlimit="10" stroke-dasharray="" stroke-dashoffset="0" font-family="none" font-weight="none" font-size="none" text-anchor="none" style="mix-blend-mode: normal"><path d="M6.4062,-16.375v3.625h4.2031v2.9062h-4.2031v5.4062c0,0.59375 0.11719,0.99609 0.35938,1.2031c0.23828,0.21094 0.70703,0.3125 1.4062,0.3125h2.0938v2.9219h-3.5c-1.6172,0 -2.7617,-0.33203 -3.4375,-1c-0.66797,-0.67578 -1,-1.8203 -1,-3.4375v-5.4062h-2.0156v-2.9062h2.0156v-3.625z"></path></g></symbol><symbol viewBox="1.0472,-17.7191,13.6876,18.04702" id="symbol-6"><g id="i" fill="#000000" fill-rule="nonzero" stroke="none" stroke-width="1" stroke-linecap="butt" stroke-linejoin="miter" stroke-miterlimit="10" stroke-dasharray="" stroke-dashoffset="0" font-family="none" font-weight="none" font-size="none" text-anchor="none" style="mix-blend-mode: normal"><path d="M10.641,-10.891v-6.8281h4.0938v17.719h-4.0938v-1.8438c-0.5625,0.75 -1.1836,1.3047 -1.8594,1.6562c-0.67969,0.34375 -1.4609,0.51562 -2.3438,0.51562c-1.5742,0 -2.8672,-0.625 -3.875,-1.875c-1.0117,-1.25 -1.5156,-2.8594 -1.5156,-4.8281c0,-1.957 0.50391,-3.5625 1.5156,-4.8125c1.0078,-1.25 2.3008,-1.875 3.875,-1.875c0.875,0 1.6484,0.17969 2.3281,0.53125c0.6875,0.35547 1.3125,0.90234 1.875,1.6406zM7.9535,-2.6254c0.875,0 1.5391,-0.31641 2,-0.95312c0.45703,-0.64453 0.6875,-1.5781 0.6875,-2.7969c0,-1.207 -0.23047,-2.1289 -0.6875,-2.7656c-0.46094,-0.64453 -1.125,-0.96875 -2,-0.96875c-0.86719,0 -1.5273,0.32422 -1.9844,0.96875c-0.46094,0.63672 -0.6875,1.5586 -0.6875,2.7656c0,1.2188 0.22656,2.1523 0.6875,2.7969c0.45703,0.63672 1.1172,0.95312 1.9844,0.95312z"></path></g></symbol><symbol viewBox="1.9531,-17.7189,13.7031,18.04705" id="symbol-7"><g id="e" fill="#000000" fill-rule="nonzero" stroke="none" stroke-width="1" stroke-linecap="butt" stroke-linejoin="miter" stroke-miterlimit="10" stroke-dasharray="" stroke-dashoffset="0" font-family="none" font-weight="none" font-size="none" text-anchor="none" style="mix-blend-mode: normal"><path d="M8.75,-2.625c0.875,0 1.5391,-0.31641 2,-0.95312c0.45703,-0.64453 0.6875,-1.5781 0.6875,-2.7969c0,-1.207 -0.23047,-2.1289 -0.6875,-2.7656c-0.46094,-0.64453 -1.125,-0.96875 -2,-0.96875c-0.875,0 -1.5469,0.32422 -2.0156,0.96875c-0.46875,0.64844 -0.70312,1.5703 -0.70312,2.7656c0,1.2109 0.23438,2.1367 0.70312,2.7812c0.46875,0.64844 1.1406,0.96875 2.0156,0.96875zM6.0312,-10.8906c0.5625,-0.73828 1.1875,-1.2852 1.875,-1.6406c0.6875,-0.35156 1.4727,-0.53125 2.3594,-0.53125c1.5703,0 2.8633,0.625 3.875,1.875c1.0078,1.25 1.5156,2.8555 1.5156,4.8125c0,1.9688 -0.50781,3.5781 -1.5156,4.8281c-1.0117,1.25 -2.3047,1.875 -3.875,1.875c-0.88672,0 -1.6719,-0.17969 -2.3594,-0.53125c-0.6875,-0.35156 -1.3125,-0.89844 -1.875,-1.6406v1.8438h-4.0781v-17.719h4.0781z"></path></g></symbol><symbol viewBox="0.28125,-12.75,14.4999,17.78115" id="symbol-8"><g id="h" fill="#000000" fill-rule="nonzero" stroke="none" stroke-width="1" stroke-linecap="butt" stroke-linejoin="miter" stroke-miterlimit="10" stroke-dasharray="" stroke-dashoffset="0" font-family="none" font-weight="none" font-size="none" text-anchor="none" style="mix-blend-mode: normal"><path d="M0.28125,-12.75h4.0781l3.4375,8.6562l2.9062,-8.6562h4.0781l-5.3594,13.953c-0.54297,1.4258 -1.1719,2.4219 -1.8906,2.9844c-0.7187,0.5625 -1.668,0.84375 -2.8438,0.84375h-2.3594v-2.6719h1.2812c0.6875,0 1.1875,-0.10938 1.5,-0.32812c0.32031,-0.21875 0.57031,-0.61719 0.75,-1.1875l0.10938,-0.35938z"></path></g></symbol><symbol viewBox="0.4374,-17,17.0782,17" id="symbol-9"><g id="g" fill="#000000" fill-rule="nonzero" stroke="none" stroke-width="1" stroke-linecap="butt" stroke-linejoin="miter" stroke-miterlimit="10" stroke-dasharray="" stroke-dashoffset="0" font-family="none" font-weight="none" font-size="none" text-anchor="none" style="mix-blend-mode: normal"><path d="M11.625,-8.6875l5.8906,8.6875h-4.5625l-3.9844,-5.8125l-3.9375,5.8125h-4.5938l5.9062,-8.6875l-5.6719,-8.3125h4.5781l3.7188,5.4688l3.7188,-5.4688h4.6094z"></path></g></symbol><symbol viewBox="1.9531,-17.719,4.0781,17.719" id="symbol-10"><g id="t" fill="#000000" fill-rule="nonzero" stroke="none" stroke-width="1" stroke-linecap="butt" stroke-linejoin="miter" stroke-miterlimit="10" stroke-dasharray="" stroke-dashoffset="0" font-family="none" font-weight="none" font-size="none" text-anchor="none" style="mix-blend-mode: normal"><path d="M1.9531,-17.719h4.0781v17.719h-4.0781z"></path></g></symbol><symbol viewBox="2.1406,-17,14.65622,17.3286" id="symbol-11"><g id="s" fill="#000000" fill-rule="nonzero" stroke="none" stroke-width="1" stroke-linecap="butt" stroke-linejoin="miter" stroke-miterlimit="10" stroke-dasharray="" stroke-dashoffset="0" font-family="none" font-weight="none" font-size="none" text-anchor="none" style="mix-blend-mode: normal"><path d="M2.1406,-17h4.3906v10.188c0,1.4062 0.22656,2.4141 0.6875,3.0156c0.45703,0.60547 1.207,0.90625 2.25,0.90625c1.0391,0 1.7891,-0.30078 2.25,-0.90625c0.46875,-0.60156 0.70312,-1.6094 0.70312,-3.0156v-10.188h4.375v10.188c0,2.4062 -0.60547,4.1992 -1.8125,5.375c-1.2109,1.1797 -3.0469,1.7656 -5.5156,1.7656c-2.4687,0 -4.3086,-0.58594 -5.5156,-1.7656c-1.2109,-1.1758 -1.8125,-2.9688 -1.8125,-5.375z"></path></g></symbol><symbol viewBox="0.43725,-17.719,9.92175,17.71882" id="symbol-12"><g id="r" fill="#000000" fill-rule="nonzero" stroke="none" stroke-width="1" stroke-linecap="butt" stroke-linejoin="miter" stroke-miterlimit="10" stroke-dasharray="" stroke-dashoffset="0" font-family="none" font-weight="none" font-size="none" text-anchor="none" style="mix-blend-mode: normal"><path d="M10.359,-17.719v2.6719h-2.2656c-0.57422,0 -0.97656,0.10547 -1.2031,0.3125c-0.23047,0.21094 -0.34375,0.57422 -0.34375,1.0938v0.89062h3.4844v2.9062h-3.4844v9.8438h-4.0781v-9.8438h-2.0312v-2.9062h2.0312v-0.89062c0,-1.3945 0.38281,-2.4219 1.1562,-3.0781c0.78125,-0.66406 1.9844,-1 3.6094,-1z"></path></g></symbol><symbol viewBox="0.9999,-13.0622,14.0313,13.3905" id="symbol-13"><g id="d" fill="#000000" fill-rule="nonzero" stroke="none" stroke-width="1" stroke-linecap="butt" stroke-linejoin="miter" stroke-miterlimit="10" stroke-dasharray="" stroke-dashoffset="0" font-family="none" font-weight="none" font-size="none" text-anchor="none" style="mix-blend-mode: normal"><path d="M8.0312,-10.156c-0.90625,0 -1.6016,0.32812 -2.0781,0.98438c-0.46875,0.64844 -0.70312,1.5781 -0.70312,2.7969c0,1.2305 0.23438,2.1719 0.70312,2.8281c0.47656,0.64844 1.1719,0.96875 2.0781,0.96875c0.88281,0 1.5625,-0.32031 2.0312,-0.96875c0.47656,-0.65625 0.71875,-1.5977 0.71875,-2.8281c0,-1.2188 -0.24219,-2.1484 -0.71875,-2.7969c-0.46875,-0.65625 -1.1484,-0.98438 -2.0312,-0.98438zM8.0312,-13.0622c2.1953,0 3.9102,0.59375 5.1406,1.7812c1.2383,1.1797 1.8594,2.8125 1.8594,4.9062c0,2.1055 -0.62109,3.75 -1.8594,4.9375c-1.2305,1.1797 -2.9453,1.7656 -5.1406,1.7656c-2.1992,0 -3.9219,-0.58594 -5.1719,-1.7656c-1.2422,-1.1875 -1.8594,-2.832 -1.8594,-4.9375c0,-2.0938 0.61719,-3.7266 1.8594,-4.9062c1.25,-1.1875 2.9727,-1.7812 5.1719,-1.7812z"></path></g></symbol><symbol viewBox="1.93726,-13.0629,20.53134,13.06251" id="symbol-14"><g id="q" fill="#000000" fill-rule="nonzero" stroke="none" stroke-width="1" stroke-linecap="butt" stroke-linejoin="miter" stroke-miterlimit="10" stroke-dasharray="" stroke-dashoffset="0" font-family="none" font-weight="none" font-size="none" text-anchor="none" style="mix-blend-mode: normal"><path d="M13.781,-10.641c0.51953,-0.78906 1.1328,-1.3906 1.8438,-1.7969c0.70703,-0.41406 1.4883,-0.625 2.3438,-0.625c1.457,0 2.5703,0.45312 3.3438,1.3594c0.76953,0.89844 1.1562,2.2109 1.1562,3.9375v7.7656h-4.1094v-6.6562c0.00781,-0.09375 0.01563,-0.19141 0.01563,-0.29688c0.00781,-0.11328 0.01563,-0.26953 0.01563,-0.46875c0,-0.89453 -0.13672,-1.5469 -0.40625,-1.9531c-0.26172,-0.40625 -0.6875,-0.60938 -1.2812,-0.60938c-0.78125,0 -1.3867,0.32031 -1.8125,0.95312c-0.41797,0.63672 -0.63281,1.5586 -0.64062,2.7656v6.2656h-4.0938v-6.6562c0,-1.4062 -0.125,-2.3125 -0.375,-2.7188c-0.24219,-0.40625 -0.67188,-0.60938 -1.2969,-0.60938c-0.78125,0 -1.3867,0.32422 -1.8125,0.96875c-0.42969,0.63672 -0.64062,1.5469 -0.64062,2.7344v6.2812h-4.0938v-12.75h4.0938v1.8594c0.5,-0.71875 1.0703,-1.2578 1.7188,-1.625c0.65625,-0.36328 1.375,-0.54688 2.1562,-0.54688c0.88281,0 1.6641,0.21484 2.3438,0.64062c0.67578,0.41797 1.1875,1.0117 1.5312,1.7812z"></path></g></symbol><symbol viewBox="1.95285,-17.71905,12.82816,17.71905" id="symbol-15"><g id="p" fill="#000000" fill-rule="nonzero" stroke="none" stroke-width="1" stroke-linecap="butt" stroke-linejoin="miter" stroke-miterlimit="10" stroke-dasharray="" stroke-dashoffset="0" font-family="none" font-weight="none" font-size="none" text-anchor="none" style="mix-blend-mode: normal"><path d="M14.781,-7.7656v7.7656h-4.0938v-5.9219c0,-1.1133 -0.02734,-1.8789 -0.07812,-2.2969c-0.05469,-0.41406 -0.13672,-0.72266 -0.25,-0.92188c-0.16797,-0.26953 -0.38672,-0.47656 -0.65625,-0.625c-0.27344,-0.14453 -0.58594,-0.21875 -0.9375,-0.21875c-0.84375,0 -1.5117,0.32812 -2,0.98438c-0.49219,0.65625 -0.73438,1.5625 -0.73438,2.7188v6.2812h-4.0781v-17.719h4.0781v6.8281c0.61328,-0.73828 1.2656,-1.2852 1.9531,-1.6406c0.69531,-0.35156 1.4609,-0.53125 2.2969,-0.53125c1.4766,0 2.5977,0.45312 3.3594,1.3594c0.75781,0.89844 1.1406,2.2109 1.1406,3.9375z"></path></g></symbol><symbol viewBox="2.1406,-17,15.2343,17" id="symbol-16"><g id="o" fill="#000000" fill-rule="nonzero" stroke="none" stroke-width="1" stroke-linecap="butt" stroke-linejoin="miter" stroke-miterlimit="10" stroke-dasharray="" stroke-dashoffset="0" font-family="none" font-weight="none" font-size="none" text-anchor="none" style="mix-blend-mode: normal"><path d="M2.1406,-17h4.9062l6.1719,11.656v-11.656h4.1562v17h-4.8906l-6.1875,-11.672v11.672h-4.1562z"></path></g></symbol><symbol viewBox="1.8281,-12.75,12.81255,13.07807" id="symbol-17"><g id="n" fill="#000000" fill-rule="nonzero" stroke="none" stroke-width="1" stroke-linecap="butt" stroke-linejoin="miter" stroke-miterlimit="10" stroke-dasharray="" stroke-dashoffset="0" font-family="none" font-weight="none" font-size="none" text-anchor="none" style="mix-blend-mode: normal"><path d="M1.8281,-4.9688v-7.7812h4.0938v1.2656c0,0.69922 -0.00781,1.5703 -0.01562,2.6094v2.0938c0,1.0234 0.02344,1.7617 0.07813,2.2188c0.05078,0.44922 0.14062,0.77344 0.26562,0.96875c0.16406,0.27344 0.38281,0.48047 0.65625,0.625c0.26953,0.14844 0.58203,0.21875 0.9375,0.21875c0.84375,0 1.5078,-0.32812 2,-0.98438c0.48828,-0.65625 0.73438,-1.5625 0.73438,-2.7188v-6.2969h4.0625v12.75h-4.0625v-1.8438c-0.625,0.74219 -1.2812,1.2891 -1.9688,1.6406c-0.67969,0.35156 -1.4336,0.53125 -2.2656,0.53125c-1.4688,0 -2.5898,-0.44531 -3.3594,-1.3438c-0.77344,-0.90625 -1.1562,-2.2227 -1.1562,-3.9531z"></path></g></symbol><symbol viewBox="1.95285,-13.0624,12.82816,13.06245" id="symbol-18"><g id="m" fill="#000000" fill-rule="nonzero" stroke="none" stroke-width="1" stroke-linecap="butt" stroke-linejoin="miter" stroke-miterlimit="10" stroke-dasharray="" stroke-dashoffset="0" font-family="none" font-weight="none" font-size="none" text-anchor="none" style="mix-blend-mode: normal"><path d="M14.781,-7.7656v7.7656h-4.0938v-5.9531c0,-1.0938 -0.02734,-1.8477 -0.07812,-2.2656c-0.05469,-0.41406 -0.13672,-0.72266 -0.25,-0.92188c-0.16797,-0.26953 -0.38672,-0.47656 -0.65625,-0.625c-0.27344,-0.14453 -0.58594,-0.21875 -0.9375,-0.21875c-0.84375,0 -1.5117,0.32812 -2,0.98438c-0.49219,0.65625 -0.73438,1.5625 -0.73438,2.7188v6.2812h-4.0781v-12.75h4.0781v1.8594c0.61328,-0.73828 1.2656,-1.2852 1.9531,-1.6406c0.69531,-0.35156 1.4609,-0.53125 2.2969,-0.53125c1.4766,0 2.5977,0.45312 3.3594,1.3594c0.75781,0.89844 1.1406,2.2109 1.1406,3.9375z"></path></g></symbol><symbol viewBox="2.1406,-17,14,17" id="symbol-19"><g id="l" fill="#000000" fill-rule="nonzero" stroke="none" stroke-width="1" stroke-linecap="butt" stroke-linejoin="miter" stroke-miterlimit="10" stroke-dasharray="" stroke-dashoffset="0" font-family="none" font-weight="none" font-size="none" text-anchor="none" style="mix-blend-mode: normal"><path d="M2.1406,-17h7.2812c2.1641,0 3.8281,0.48047 4.9844,1.4375c1.1562,0.96094 1.7344,2.3281 1.7344,4.1094c0,1.7813 -0.57812,3.1523 -1.7344,4.1094c-1.1562,0.96094 -2.8203,1.4375 -4.9844,1.4375h-2.8906v5.9062h-4.3906zM6.5312,-13.8281v4.75h2.4219c0.85156,0 1.5078,-0.20312 1.9688,-0.60938c0.46875,-0.41406 0.70312,-1.0039 0.70312,-1.7656c0,-0.75781 -0.23438,-1.3438 -0.70312,-1.75c-0.46094,-0.41406 -1.1172,-0.625 -1.9688,-0.625z"></path></g></symbol><symbol viewBox="-0.7813,-17.7188,6.8125,22.7504" id="symbol-20"><g id="k" fill="#000000" fill-rule="nonzero" stroke="none" stroke-width="1" stroke-linecap="butt" stroke-linejoin="miter" stroke-miterlimit="10" stroke-dasharray="" stroke-dashoffset="0" font-family="none" font-weight="none" font-size="none" text-anchor="none" style="mix-blend-mode: normal"><path d="M1.9531,-12.75h4.0781v12.516c0,1.707 -0.41406,3.0078 -1.2344,3.9062c-0.8125,0.90625 -2,1.3594 -3.5625,1.3594h-2.0156v-2.6719h0.71875c0.76953,0 1.2969,-0.17969 1.5781,-0.53125c0.28906,-0.34375 0.4375,-1.0312 0.4375,-2.0625zM1.9531,-17.7188h4.0781v3.3281h-4.0781z"></path></g></symbol><symbol viewBox="1.0004,-13.062,11.2656,13.3905" id="symbol-21"><g id="j" fill="#000000" fill-rule="nonzero" stroke="none" stroke-width="1" stroke-linecap="butt" stroke-linejoin="miter" stroke-miterlimit="10" stroke-dasharray="" stroke-dashoffset="0" font-family="none" font-weight="none" font-size="none" text-anchor="none" style="mix-blend-mode: normal"><path d="M12.266,-12.359v3.3281c-0.55469,-0.38281 -1.1094,-0.66406 -1.6719,-0.84375c-0.55469,-0.1875 -1.1328,-0.28125 -1.7344,-0.28125c-1.1367,0 -2.0234,0.33594 -2.6562,1c-0.63672,0.66797 -0.95312,1.5938 -0.95312,2.7812c0,1.1992 0.31641,2.1328 0.95312,2.7969c0.63281,0.66797 1.5195,1 2.6562,1c0.63281,0 1.2383,-0.09375 1.8125,-0.28125c0.57031,-0.19531 1.1016,-0.48438 1.5938,-0.85938v3.3438c-0.63672,0.24219 -1.2812,0.41406 -1.9375,0.53125c-0.65625,0.11328 -1.3203,0.17188 -1.9844,0.17188c-2.3047,0 -4.1055,-0.58594 -5.4062,-1.7656c-1.293,-1.1875 -1.9375,-2.832 -1.9375,-4.9375c0,-2.0938 0.64453,-3.7266 1.9375,-4.9062c1.3008,-1.1875 3.1016,-1.7812 5.4062,-1.7812c0.67578,0 1.3359,0.05859 1.9844,0.17188c0.64453,0.11719 1.2891,0.29297 1.9375,0.53125z"></path></g></symbol></defs><g fill="#ffffff" fill-rule="nonzero" stroke="none" stroke-width="1" stroke-linecap="butt" stroke-linejoin="miter" stroke-miterlimit="10" stroke-dasharray="" stroke-dashoffset="0" font-family="none" font-weight="none" font-size="none" text-anchor="none" style="mix-blend-mode: normal"><g transform="translate(8.45399,-0.92007) scale(0.36571,0.36571)"><g><path d="M350,46.668c-129.27,0 -233.33,104.07 -233.33,233.33c0,129.26 104.07,233.33 233.33,233.33c129.26,0 233.33,-104.07 233.33,-233.33c0,-129.26 -104.07,-233.33 -233.33,-233.33zM350,454.998c-97.066,0 -175,-77.934 -175,-175c0,-97.066 77.934,-175 175,-175c97.066,0 175,77.934 175,175c0,97.066 -77.934,175 -175,175z"></path><path d="M350,222.6c16.332,0 28.934,-12.602 28.934,-28.934c0,-16.332 -12.602,-28.934 -28.934,-28.934c-16.332,0 -28.934,12.602 -28.934,28.934c0,16.332 12.602,28.934 28.934,28.934z"></path><path d="M388.73,338.33c-5.6016,0 -9.8008,-3.7344 -9.8008,-8.8672v-77.465c0,-5.6016 -4.668,-10.734 -9.8008,-10.734h-57.867c-5.6016,0 -9.8008,5.6016 -9.8008,10.734v19.602c0,6.0664 4.668,8.8672 9.8008,8.8672c5.6016,0 9.8008,5.6016 9.8008,10.734v38.734c0,6.0664 -4.668,8.8672 -9.8008,8.8672c-5.6016,0 -9.8008,5.6016 -9.8008,10.734v19.129c0,6.0664 4.668,8.8672 9.8008,8.8672h77.934c5.6016,0 9.8008,-3.7344 9.8008,-8.8672v-19.602c-0.46484,-6.0664 -5.1328,-10.734 -10.266,-10.734z"></path></g></g></g></svg>