<svg version="1.1" xmlns="http://www.w3.org/2000/svg" xmlns:xlink="http://www.w3.org/1999/xlink" width="700pt" height="700pt" viewBox="0,0,256,256"><g fill="#2e2d2c" fill-rule="nonzero" stroke="none" stroke-width="1" stroke-linecap="butt" stroke-linejoin="miter" stroke-miterlimit="10" stroke-dasharray="" stroke-dashoffset="0" font-family="none" font-weight="none" font-size="none" text-anchor="none" style="mix-blend-mode: normal"><g transform="translate(-0.01713,25.48734) scale(0.36571,0.36571)"><g><path d="M472.5,365.4l-78.75,-78.75c-1.7383,-1.6484 -2.7227,-3.9453 -2.7227,-6.3438c0,-2.3984 0.98438,-4.6914 2.7227,-6.3438l78.75,-78.75c5.2969,-5.0742 8.3359,-12.066 8.4336,-19.402c0.09766,-7.3359 -2.75,-14.402 -7.9102,-19.621c-5.1953,-4.8359 -12.129,-7.3594 -19.219,-6.9961c-7.0898,0.36328 -13.727,3.582 -18.406,8.9219l-78.75,78.75c-1.6484,1.7383 -3.9453,2.7227 -6.3438,2.7227c-2.3984,0 -4.6914,-0.98438 -6.3438,-2.7227l-78.75,-78.75c-5.0742,-5.2969 -12.066,-8.3359 -19.402,-8.4336c-7.3359,-0.09766 -14.402,2.75 -19.621,7.9062c-4.8359,5.1992 -7.3594,12.133 -6.9961,19.223c0.36328,7.0859 3.582,13.727 8.9219,18.402l78.75,78.75c1.7383,1.6523 2.7227,3.9453 2.7227,6.3438c0,2.3984 -0.98438,4.6953 -2.7227,6.3438l-78.75,78.75c-5.2969,5.0781 -8.3359,12.066 -8.4336,19.402c-0.09766,7.3359 2.75,14.406 7.9062,19.625c5.1992,4.832 12.133,7.3555 19.223,6.9961c7.0859,-0.36328 13.727,-3.582 18.402,-8.9219l78.75,-78.75c1.6523,-1.7383 3.9453,-2.7227 6.3438,-2.7227c2.3984,0 4.6953,0.98438 6.3438,2.7227l78.75,78.75c4.6797,5.3398 11.316,8.5586 18.406,8.9219c7.0898,0.35938 14.023,-2.1641 19.219,-6.9961c5.1602,-5.2188 8.0078,-12.289 7.9102,-19.625c-0.09766,-7.3359 -3.1367,-14.324 -8.4336,-19.402z"></path></g></g></g></svg>